<svg width="200" height="56" viewBox="0 0 200 56" fill="none" xmlns="http://www.w3.org/2000/svg">
<rect width="200" height="56" rx="28" fill="#16A34A"/>
<path d="M16 12H36.8V37.6H44.8V12H48V44H33.6V18.4H19.2V37.6H30.4V44H16V12Z" fill="white"/>
<path d="M64.668 35.264C63.0987 35.264 61.7493 34.978 60.62 34.406C59.5053 33.834 58.64 32.9687 58.024 31.81C57.4227 30.6513 57.122 29.1993 57.122 27.454C57.122 25.694 57.4227 24.242 58.024 23.098C58.64 21.9393 59.5053 21.074 60.62 20.502C61.7493 19.93 63.0987 19.644 64.668 19.644C66.2373 19.644 67.5793 19.93 68.694 20.502C69.8233 21.074 70.6887 21.9393 71.29 23.098C71.906 24.242 72.214 25.694 72.214 27.454C72.214 29.1993 71.906 30.6513 71.29 31.81C70.6887 32.9687 69.8233 33.834 68.694 34.406C67.5793 34.978 66.2373 35.264 64.668 35.264ZM64.668 33.46C65.4893 33.46 66.23 33.35 66.89 33.13C67.5647 32.91 68.1293 32.5653 68.584 32.096C69.0533 31.612 69.4127 31.0107 69.662 30.292C69.9113 29.5587 70.036 28.6933 70.036 27.696V27.234C70.036 26.222 69.9113 25.3567 69.662 24.638C69.4127 23.9047 69.0533 23.3033 68.584 22.834C68.1293 22.35 67.5647 21.998 66.89 21.778C66.23 21.558 65.4893 21.448 64.668 21.448C63.832 21.448 63.084 21.558 62.424 21.778C61.764 21.998 61.1993 22.35 60.73 22.834C60.2607 23.3033 59.9013 23.9047 59.652 24.638C59.4173 25.3567 59.3 26.222 59.3 27.234V27.696C59.3 28.6933 59.4173 29.5587 59.652 30.292C59.9013 31.0107 60.2607 31.612 60.73 32.096C61.1993 32.5653 61.764 32.91 62.424 33.13C63.084 33.35 63.832 33.46 64.668 33.46ZM74.4159 38.806V23.428H75.9559L76.1539 25.078H76.3079C76.7039 24.4327 77.2099 23.956 77.8259 23.648C78.4419 23.3253 79.1386 23.164 79.9159 23.164C80.8839 23.164 81.7052 23.3767 82.3799 23.802C83.0546 24.2273 83.5752 24.8947 83.9419 25.804C84.3086 26.6987 84.4919 27.8647 84.4919 29.302C84.4919 30.6513 84.3012 31.7733 83.9199 32.668C83.5532 33.548 83.0326 34.2007 82.3579 34.626C81.6832 35.0513 80.8986 35.264 80.0039 35.264C79.5052 35.264 79.0359 35.2053 78.5959 35.088C78.1559 34.9707 77.7599 34.7873 77.4079 34.538C77.0559 34.274 76.7479 33.944 76.4839 33.548H76.3519V38.806H74.4159ZM79.3879 33.57C80.1066 33.57 80.6932 33.4307 81.1479 33.152C81.6026 32.8587 81.9399 32.4113 82.1599 31.81C82.3799 31.194 82.4899 30.4093 82.4899 29.456V28.994C82.4899 27.982 82.3726 27.1753 82.1379 26.574C81.9032 25.958 81.5586 25.518 81.1039 25.254C80.6639 24.99 80.1139 24.858 79.4539 24.858C78.7352 24.858 78.1412 25.0193 77.6719 25.342C77.2172 25.65 76.8799 26.1193 76.6599 26.75C76.4546 27.3807 76.3519 28.1507 76.3519 29.06V29.39C76.3519 30.1967 76.4252 30.8713 76.5719 31.414C76.7332 31.942 76.9532 32.3673 77.2319 32.69C77.5252 33.0127 77.8552 33.24 78.2219 33.372C78.5886 33.504 78.9772 33.57 79.3879 33.57ZM91.0783 35.264C89.9343 35.264 88.9663 35.0513 88.1743 34.626C87.397 34.186 86.803 33.5187 86.3923 32.624C85.9963 31.7293 85.7983 30.5927 85.7983 29.214C85.7983 27.8207 85.9963 26.684 86.3923 25.804C86.803 24.9093 87.4043 24.2493 88.1963 23.824C88.9883 23.384 89.9783 23.164 91.1663 23.164C92.2516 23.164 93.161 23.3767 93.8943 23.802C94.6276 24.2127 95.1776 24.836 95.5443 25.672C95.9256 26.4933 96.1163 27.5273 96.1163 28.774V29.698H87.8003C87.8296 30.622 87.9616 31.3847 88.1963 31.986C88.4456 32.5727 88.8123 33.0053 89.2963 33.284C89.7803 33.548 90.389 33.68 91.1223 33.68C91.621 33.68 92.0536 33.6213 92.4203 33.504C92.8016 33.372 93.117 33.1887 93.3663 32.954C93.6303 32.7193 93.8283 32.4407 93.9603 32.118C94.0923 31.7953 94.1656 31.4433 94.1803 31.062H96.0723C96.0576 31.678 95.9403 32.25 95.7203 32.778C95.5003 33.2913 95.1776 33.7313 94.7523 34.098C94.327 34.4647 93.8063 34.7507 93.1903 34.956C92.5743 35.1613 91.8703 35.264 91.0783 35.264ZM87.8443 28.246H94.1143C94.1143 27.6007 94.041 27.058 93.8943 26.618C93.7476 26.178 93.535 25.8187 93.2563 25.54C92.9923 25.2613 92.677 25.0633 92.3103 24.946C91.9583 24.814 91.555 24.748 91.1003 24.748C90.4256 24.748 89.8536 24.8727 89.3843 25.122C88.915 25.3713 88.5556 25.7527 88.3063 26.266C88.057 26.7793 87.903 27.4393 87.8443 28.246ZM98.071 35V23.428H99.633L99.809 25.166H99.963C100.271 24.6967 100.616 24.3153 100.997 24.022C101.393 23.7287 101.826 23.516 102.295 23.384C102.779 23.2373 103.292 23.164 103.835 23.164C104.568 23.164 105.206 23.2887 105.749 23.538C106.306 23.7873 106.739 24.1907 107.047 24.748C107.37 25.3053 107.531 26.0607 107.531 27.014V35H105.595V27.278C105.595 26.794 105.529 26.398 105.397 26.09C105.28 25.782 105.111 25.54 104.891 25.364C104.686 25.188 104.429 25.0633 104.121 24.99C103.828 24.9167 103.498 24.88 103.131 24.88C102.588 24.88 102.075 25.012 101.591 25.276C101.107 25.54 100.718 25.9213 100.425 26.42C100.146 26.9187 100.007 27.5127 100.007 28.202V35H98.071ZM121.005 35.264C119.465 35.264 118.16 34.9853 117.089 34.428C116.019 33.856 115.197 32.998 114.625 31.854C114.068 30.6953 113.789 29.2287 113.789 27.454C113.789 24.8287 114.427 22.8707 115.703 21.58C116.979 20.2893 118.754 19.644 121.027 19.644C122.318 19.644 123.462 19.8567 124.459 20.282C125.457 20.6927 126.234 21.3233 126.791 22.174C127.363 23.01 127.649 24.066 127.649 25.342H125.537C125.537 24.462 125.347 23.736 124.965 23.164C124.599 22.592 124.078 22.1667 123.403 21.888C122.729 21.5947 121.937 21.448 121.027 21.448C119.971 21.448 119.062 21.6533 118.299 22.064C117.537 22.4747 116.957 23.1127 116.561 23.978C116.165 24.8287 115.967 25.9287 115.967 27.278V27.74C115.967 29.0747 116.165 30.1673 116.561 31.018C116.957 31.854 117.529 32.47 118.277 32.866C119.04 33.262 119.957 33.46 121.027 33.46C121.966 33.46 122.773 33.3207 123.447 33.042C124.137 32.7633 124.665 32.338 125.031 31.766C125.413 31.1793 125.603 30.446 125.603 29.566H127.649C127.649 30.8713 127.356 31.942 126.769 32.778C126.197 33.614 125.413 34.2373 124.415 34.648C123.418 35.0587 122.281 35.264 121.005 35.264ZM134.503 35.264C133.33 35.264 132.34 35.0513 131.533 34.626C130.741 34.186 130.132 33.5187 129.707 32.624C129.296 31.7293 129.091 30.5927 129.091 29.214C129.091 27.8207 129.296 26.684 129.707 25.804C130.132 24.9093 130.741 24.2493 131.533 23.824C132.34 23.384 133.33 23.164 134.503 23.164C135.676 23.164 136.659 23.384 137.451 23.824C138.258 24.2493 138.866 24.9093 139.277 25.804C139.688 26.684 139.893 27.8207 139.893 29.214C139.893 30.5927 139.688 31.7293 139.277 32.624C138.866 33.5187 138.258 34.186 137.451 34.626C136.659 35.0513 135.676 35.264 134.503 35.264ZM134.503 33.636C135.251 33.636 135.874 33.4893 136.373 33.196C136.872 32.9027 137.246 32.448 137.495 31.832C137.759 31.2013 137.891 30.4093 137.891 29.456V28.972C137.891 28.004 137.759 27.212 137.495 26.596C137.246 25.98 136.872 25.5253 136.373 25.232C135.874 24.9387 135.251 24.792 134.503 24.792C133.755 24.792 133.124 24.9387 132.611 25.232C132.112 25.5253 131.738 25.98 131.489 26.596C131.24 27.212 131.115 28.004 131.115 28.972V29.456C131.115 30.4093 131.24 31.2013 131.489 31.832C131.738 32.448 132.112 32.9027 132.611 33.196C133.124 33.4893 133.755 33.636 134.503 33.636ZM141.858 35V23.428H143.42L143.596 25.166H143.75C144.058 24.6967 144.403 24.3153 144.784 24.022C145.18 23.7287 145.613 23.516 146.082 23.384C146.566 23.2373 147.079 23.164 147.622 23.164C148.355 23.164 148.993 23.2887 149.536 23.538C150.093 23.7873 150.526 24.1907 150.834 24.748C151.157 25.3053 151.318 26.0607 151.318 27.014V35H149.382V27.278C149.382 26.794 149.316 26.398 149.184 26.09C149.067 25.782 148.898 25.54 148.678 25.364C148.473 25.188 148.216 25.0633 147.908 24.99C147.615 24.9167 147.285 24.88 146.918 24.88C146.375 24.88 145.862 25.012 145.378 25.276C144.894 25.54 144.505 25.9213 144.212 26.42C143.933 26.9187 143.794 27.5127 143.794 28.202V35H141.858ZM160.304 35.264C159.028 35.264 157.928 35.0587 157.004 34.648C156.08 34.2373 155.369 33.592 154.87 32.712C154.386 31.8173 154.144 30.6733 154.144 29.28V19.908H156.234V29.5C156.234 30.82 156.586 31.81 157.29 32.47C158.009 33.13 159.014 33.46 160.304 33.46C161.61 33.46 162.629 33.13 163.362 32.47C164.096 31.81 164.462 30.82 164.462 29.5V19.908H166.53V29.28C166.53 30.6733 166.281 31.8173 165.782 32.712C165.284 33.592 164.565 34.2373 163.626 34.648C162.702 35.0587 161.595 35.264 160.304 35.264ZM172.172 35.264C171.571 35.264 171.102 35.154 170.764 34.934C170.427 34.6993 170.185 34.3987 170.038 34.032C169.892 33.6507 169.818 33.2473 169.818 32.822V25.056H168.322V23.428H169.862L170.214 20.194H171.754V23.428H173.932V25.056H171.754V32.536C171.754 32.9027 171.82 33.1813 171.952 33.372C172.084 33.548 172.334 33.636 172.7 33.636H173.932V34.912C173.786 34.9853 173.61 35.044 173.404 35.088C173.199 35.132 172.986 35.1687 172.766 35.198C172.561 35.242 172.363 35.264 172.172 35.264ZM175.557 21.25V19.094H177.493V21.25H175.557ZM175.557 35V23.428H177.493V35H175.557ZM180.059 35V19.094H181.995V35H180.059Z" fill="white"/>
</svg>
